{
  "accessors": [
    {
      "bufferView": 2,
      "componentType": 5126,
      "count": 564,
      "max": [
        15.592503547668457,
        20.22804832458496,
        15.592504501342773
      ],
      "min": [
        -15.592503547668457,
        -14.817626953125,
        -15.592504501342773
      ],
      "type": "VEC3"
    },
    {
      "bufferView": 2,
      "byteOffset": 6768,
      "componentType": 5126,
      "count": 564,
      "max": [
        0.9998189806938171,
        1.0,
        0.9999955296516418
      ],
      "min": [
        -0.9995285272598267,
        -1.0,
        -0.9999955296516418
      ],
      "type": "VEC3"
    },
    {
      "bufferView": 3,
      "componentType": 5126,
      "count": 564,
      "max": [
        0.9999207854270935,
        0.9540380239486694,
        0.9998899102210999,
        1.0
      ],
      "min": [
        -0.9999449849128723,
        -0.9948816299438477,
        -0.9999662041664124,
        1.0
      ],
      "type": "VEC4"
    },
    {
      "bufferView": 1,
      "componentType": 5126,
      "count": 564,
      "max": [
        0.9927515983581543,
        0.9865961074829102
      ],
      "min": [
        0.023797333240509033,
        0.018330629914999008
      ],
      "type": "VEC2"
    },
    {
      "bufferView": 1,
      "byteOffset": 4512,
      "componentType": 5126,
      "count": 564,
      "max": [
        0.9927515983581543,
        0.9865961074829102
      ],
      "min": [
        0.023797333240509033,
        0.018330629914999008
      ],
      "type": "VEC2"
    },
    {
      "bufferView": 1,
      "byteOffset": 9024,
      "componentType": 5126,
      "count": 564,
      "max": [
        0.9927515983581543,
        0.9865961074829102
      ],
      "min": [
        0.023797333240509033,
        0.018330629914999008
      ],
      "type": "VEC2"
    },
    {
      "bufferView": 1,
      "byteOffset": 13536,
      "componentType": 5126,
      "count": 564,
      "max": [
        0.9927515983581543,
        0.9865961074829102
      ],
      "min": [
        0.023797333240509033,
        0.018330629914999008
      ],
      "type": "VEC2"
    },
    {
      "bufferView": 1,
      "byteOffset": 18048,
      "componentType": 5126,
      "count": 564,
      "max": [
        0.9927515983581543,
        0.9865961074829102
      ],
      "min": [
        0.023797333240509033,
        0.018330629914999008
      ],
      "type": "VEC2"
    },
    {
      "bufferView": 1,
      "byteOffset": 22560,
      "componentType": 5126,
      "count": 564,
      "max": [
        0.9927515983581543,
        0.9865961074829102
      ],
      "min": [
        0.023797333240509033,
        0.018330629914999008
      ],
      "type": "VEC2"
    },
    {
      "bufferView": 1,
      "byteOffset": 27072,
      "componentType": 5126,
      "count": 564,
      "max": [
        0.9927515983581543,
        0.9865961074829102
      ],
      "min": [
        0.023797333240509033,
        0.018330629914999008
      ],
      "type": "VEC2"
    },
    {
      "bufferView": 1,
      "byteOffset": 31584,
      "componentType": 5126,
      "count": 564,
      "max": [
        0.9927515983581543,
        0.9865961074829102
      ],
      "min": [
        0.023797333240509033,
        0.018330629914999008
      ],
      "type": "VEC2"
    },
    {
      "bufferView": 1,
      "byteOffset": 36096,
      "componentType": 5126,
      "count": 564,
      "max": [
        0.9927515983581543,
        0.9865961074829102
      ],
      "min": [
        0.023797333240509033,
        0.018330629914999008
      ],
      "type": "VEC2"
    },
    {
      "bufferView": 1,
      "byteOffset": 40608,
      "componentType": 5126,
      "count": 564,
      "max": [
        0.9927515983581543,
        0.9865961074829102
      ],
      "min": [
        0.023797333240509033,
        0.018330629914999008
      ],
      "type": "VEC2"
    },
    {
      "bufferView": 0,
      "componentType": 5125,
      "count": 2760,
      "type": "SCALAR"
    }
  ],
  "asset": {
    "extras": {
      "author": "bariacg (https://sketchfab.com/bariacg)",
      "license": "CC-BY-NC-4.0 (http://creativecommons.org/licenses/by-nc/4.0/)",
      "source": "https://sketchfab.com/3d-models/orange-a9d71a86a8344606be0e512669b4acc5",
      "title": "Orange"
    },
    "generator": "Sketchfab-12.65.0",
    "version": "2.0"
  },
  "bufferViews": [
    {
      "buffer": 0,
      "byteLength": 11040,
      "name": "floatBufferViews",
      "target": 34963
    },
    {
      "buffer": 0,
      "byteLength": 45120,
      "byteOffset": 11040,
      "byteStride": 8,
      "name": "floatBufferViews",
      "target": 34962
    },
    {
      "buffer": 0,
      "byteLength": 13536,
      "byteOffset": 56160,
      "byteStride": 12,
      "name": "floatBufferViews",
      "target": 34962
    },
    {
      "buffer": 0,
      "byteLength": 9024,
      "byteOffset": 69696,
      "byteStride": 16,
      "name": "floatBufferViews",
      "target": 34962
    }
  ],
  "buffers": [
    {
      "byteLength": 78720,
      "uri": "orange.bin"
    }
  ],
  "images": [
    {
      "uri": "textures/Orange_baseColor.png"
    },
    {
      "uri": "textures/Orange_metallicRoughness.png"
    },
    {
      "uri": "textures/Orange_normal.png"
    }
  ],
  "materials": [
    {
      "doubleSided": true,
      "name": "Orange",
      "normalTexture": {
        "index": 2
      },
      "pbrMetallicRoughness": {
        "baseColorTexture": {
          "index": 0
        },
        "metallicFactor": 0.0,
        "metallicRoughnessTexture": {
          "index": 1
        },
        "roughnessFactor": 0.5992759146341463
      }
    }
  ],
  "meshes": [
    {
      "name": "Orange_Orange_0",
      "primitives": [
        {
          "attributes": {
            "NORMAL": 1,
            "POSITION": 0,
            "TANGENT": 2,
            "TEXCOORD_0": 3,
            "TEXCOORD_1": 4,
            "TEXCOORD_2": 5,
            "TEXCOORD_3": 6,
            "TEXCOORD_4": 7,
            "TEXCOORD_5": 8,
            "TEXCOORD_6": 9,
            "TEXCOORD_7": 10,
            "TEXCOORD_8": 11,
            "TEXCOORD_9": 12
          },
          "indices": 13,
          "material": 0,
          "mode": 4
        }
      ]
    }
  ],
  "nodes": [
    {
      "children": [
        1
      ],
      "matrix": [
        1.0,
        0.0,
        0.0,
        0.0,
        0.0,
        2.220446049250313e-16,
        -1.0,
        0.0,
        0.0,
        1.0,
        2.220446049250313e-16,
        0.0,
        0.0,
        0.0,
        0.0,
        1.0
      ],
      "name": "Sketchfab_model"
    },
    {
      "children": [
        2
      ],
      "matrix": [
        1.0,
        0.0,
        0.0,
        0.0,
        0.0,
        0.0,
        1.0,
        0.0,
        0.0,
        -1.0,
        0.0,
        0.0,
        0.0,
        0.0,
        0.0,
        1.0
      ],
      "name": "0b52946237504a1db58711313876816d.fbx"
    },
    {
      "children": [
        3
      ],
      "name": "RootNode"
    },
    {
      "children": [
        4
      ],
      "matrix": [
        2.5399999618530273,
        0.0,
        0.0,
        0.0,
        0.0,
        2.5399999618529936,
        4.1381852677223203e-07,
        0.0,
        0.0,
        -4.1381852677223203e-07,
        2.5399999618529936,
        0.0,
        0.0,
        0.0,
        0.0,
        1.0
      ],
      "name": "Orange"
    },
    {
      "mesh": 0,
      "name": "Orange_Orange_0"
    }
  ],
  "samplers": [
    {
      "magFilter": 9729,
      "minFilter": 9987,
      "wrapS": 10497,
      "wrapT": 10497
    }
  ],
  "scene": 0,
  "scenes": [
    {
      "name": "Sketchfab_Scene",
      "nodes": [
        0
      ]
    }
  ],
  "textures": [
    {
      "sampler": 0,
      "source": 0
    },
    {
      "sampler": 0,
      "source": 1
    },
    {
      "sampler": 0,
      "source": 2
    }
  ]
}
